<?xml version="1.0" encoding="UTF-8" standalone="no"?>
<svg
   role="img"
   viewBox="-2 -2 28 28"
   version="1.1"
   id="svg1"
   sodipodi:docname="laravel-svgrepo-com (2).svg"
   xml:space="preserve"
   inkscape:version="1.4.2 (f4327f4, 2025-05-13)"
   xmlns:inkscape="http://www.inkscape.org/namespaces/inkscape"
   xmlns:sodipodi="http://sodipodi.sourceforge.net/DTD/sodipodi-0.dtd"
   xmlns="http://www.w3.org/2000/svg"
   xmlns:svg="http://www.w3.org/2000/svg"><sodipodi:namedview
     id="namedview1"
     pagecolor="#ffffff"
     bordercolor="#000000"
     borderopacity="0.25"
     inkscape:showpageshadow="2"
     inkscape:pageopacity="0.0"
     inkscape:pagecheckerboard="0"
     inkscape:deskcolor="#d1d1d1"
     inkscape:zoom="8.4107143"
     inkscape:cx="14.326964"
     inkscape:cy="6.3609342"
     inkscape:window-width="1366"
     inkscape:window-height="689"
     inkscape:window-x="-9"
     inkscape:window-y="-9"
     inkscape:window-maximized="1"
     inkscape:current-layer="svg1" /><title
     id="title1">Sass</title><defs
     id="defs1"><style
       id="style1">
      @keyframes sass-text-ani {
        0% {
          stroke-dashoffset: 104.5;
        }
        50% {
          stroke-dashoffset: 0;
          fill: transparent;
        }
        60%, 90% {
          fill: white;
          stroke: white;
        }
        100% {
          fill: #CC6699;
          stroke: #CC6699;
        }
      }
      #sass-text {
        fill: transparent;
        stroke: white;
        stroke-width: 0.5px;
        stroke-dasharray: 104.5;
        animation: sass-text-ani 5s linear infinite;
      }
    </style><style
       id="style1-0">
      @keyframes laravel-draw-ani {
        0% {
          stroke-dashoffset: 104.5;
          fill: transparent;
        }
        50% {
          stroke-dashoffset: 0;
          fill: transparent;
        }
        60%, 90% {
          fill: white;
          stroke: white;
        }
        100% {
          /* Aqui ele volta para o estado final sólido */
          fill: transparent;
          stroke: transparent;
        }
      }

      #laravel-path {
        fill: transparent;
        stroke: white;
        stroke-width: 0.2px; /* Linha fina para o efeito de desenho */
        stroke-dasharray: 104.5;
        animation: laravel-draw-ani 8s linear infinite;
      }
    </style><linearGradient
       id="paint0_linear_302_4984"
       x1=".463"
       x2="24.463"
       y1="12"
       y2="12"
       gradientUnits="userSpaceOnUse"
       gradientTransform="matrix(0.87710673,0,0,0.87710673,1.3546525,1.0617978)"><stop
         stop-color="#ED6D6B"
         id="stop1" /><stop
         offset="1"
         stop-color="#F0B076"
         id="stop2" /></linearGradient></defs><g
     style="fill:none"
     id="g1"
     transform="matrix(1.0077848,0,0,1.0077848,-0.4411267,-0.33121025)"><rect
       width="21.050562"
       height="21.050562"
       x="1.7607529"
       fill="url(#paint0_linear_302_4984)"
       rx="7.0168538"
       id="rect2"
       y="1.0617977"
       style="fill:url(#paint0_linear_302_4984);stroke-width:0.877107"
       ry="0" /><path
       id="laravel-path"
       fill-rule="evenodd"
       d="M 8.61628,4.05631 C 8.46613,3.98123 8.2894,3.98123 8.13925,4.05631 L 5.29683,5.47751 C 5.29006,5.48087 5.28334,5.48437 5.27669,5.48802 5.2228,5.51759 5.1753,5.55575 5.13553,5.60028 5.11472,5.6236 5.09603,5.64866 5.07965,5.67516 5.02854,5.75787 5,5.85454 5,5.95555 V 16.2666 c 0,0.1927 0.10393,0.3704 0.27186,0.4649 l 5.68064,3.1953 c 0.0262,0.0153 0.0536,0.0283 0.0818,0.0389 0.028,0.0106 0.0567,0.0187 0.0858,0.0243 0.12,0.0235 0.2487,0.0061 0.3636,-0.0586 l 5.6888,-3.1999 c 0.168,-0.0945 0.2719,-0.2722 0.2719,-0.4649 v -3.2259 l 2.5496,-1.2748 c 0.1807,-0.0903 0.2948,-0.275 0.2948,-0.477 V 7.73332 c 0,-0.16143 -0.0729,-0.31177 -0.1943,-0.41177 C 20.0691,7.30064 20.0416,7.28194 20.0121,7.26579 20.0055,7.26214 19.9988,7.25864 19.992,7.25529 L 17.1496,5.83408 c -0.1502,-0.07508 -0.3269,-0.07508 -0.477,0 L 13.8302,7.25527 C 13.8234,7.25862 13.8167,7.26213 13.81,7.26579 13.7499,7.29876 13.6978,7.3424 13.6555,7.39366 13.6225,7.43358 13.5954,7.47811 13.5753,7.52583 13.5575,7.56792 13.5451,7.61249 13.5386,7.65852 13.5351,7.68308 13.5333,7.70807 13.5333,7.73332 V 10.977 l -1.7778,0.9999 V 5.95555 c 0,-0.13291 -0.0486,-0.25446 -0.129,-0.34784 C 11.6057,5.5835 11.5827,5.5611 11.5576,5.54081 11.5248,5.5143 11.4889,5.4916 11.4504,5.47336 Z m 5.46502,7.83619 1.6926,0.8463 -4.5664,2.5686 -1.69261,-0.8463 z M 16.3777,11.8481 14.6,10.9593 V 8.59627 l 1.7777,0.88888 z m 1.0667,0 1.7778,-0.8888 V 8.59627 L 17.4444,9.48515 Z M 10.6889,12.577 V 6.8185 L 8.91109,7.70738 v 5.86952 z m -0.71461,3.3064 0.52841,0.2642 c 0.1206,0.0653 0.1862,0.1093 0.1862,0.1301 v 2.277 l -4.62224,-2.6 V 6.8185 l 1.77777,0.88888 v 6.78122 2e-4 c 0,0.0127 4.5e-4,0.0252 0.00132,0.0377 0.01321,0.1871 0.12411,0.3547 0.2935,0.4394 0,0 0.79817,0.4199 1.49962,0.7563 0.12058,0.0578 0.23273,0.1116 0.33542,0.1612 z m 1.78121,0.3396 4.6222,-2.6 v 2.3317 l -4.6222,2.6 z M 8.37776,6.78148 6.72589,5.95555 8.37776,5.12962 10.0296,5.95555 Z M 18.5629,7.73332 16.9111,6.90739 15.2592,7.73332 16.9111,8.55925 Z"
       clip-rule="evenodd" /></g></svg>
