<?xml version="1.0" encoding="UTF-8" standalone="no"?>
<svg
   role="img"
   viewBox="-2 -2 28 28"
   version="1.1"
   id="svg1"
   sodipodi:docname="laravel-animated.svg"
   xml:space="preserve"
   inkscape:version="1.4.2 (f4327f4, 2025-05-13)"
   xmlns:inkscape="http://www.inkscape.org/namespaces/inkscape"
   xmlns:sodipodi="http://sodipodi.sourceforge.net/DTD/sodipodi-0.dtd"
   xmlns="http://www.w3.org/2000/svg"
   xmlns:svg="http://www.w3.org/2000/svg"><sodipodi:namedview
     id="namedview1"
     pagecolor="#ffffff"
     bordercolor="#000000"
     borderopacity="0.25"
     inkscape:showpageshadow="2"
     inkscape:pageopacity="0.0"
     inkscape:pagecheckerboard="0"
     inkscape:deskcolor="#d1d1d1"
     inkscape:zoom="8.4107143"
     inkscape:cx="14.44586"
     inkscape:cy="6.3609342"
     inkscape:window-width="1366"
     inkscape:window-height="689"
     inkscape:window-x="-9"
     inkscape:window-y="-9"
     inkscape:window-maximized="1"
     inkscape:current-layer="svg1" /><title
     id="title1">Laravel</title><defs
     id="defs1"><style
       id="style1">
      @keyframes laravel-icon-ani {
        0% {
          stroke-dashoffset: 104.5;
        }
        50% {
          stroke-dashoffset: 0;
          fill: transparent;
        }
        60%, 90% {
          fill: #f0513fff;
          stroke: #f0513fff;
        }
        100% {
          fill: #CC6699;
          stroke: #CC6699;
        }
      }
      #laravel-icon {
        fill: transparent;
        stroke: f0513fff;
        stroke-width: 0.5px;
        stroke-dasharray: 104.5;
        animation: laravel-icon-ani 5s linear infinite;
      }
    </style><style
       id="style1-0">
      @keyframes laravel-draw-ani {
        0% {
          stroke-dashoffset: 104.5;
          fill: transparent;
        }
        50% {
          stroke-dashoffset: 0;
          fill: transparent;
        }
        60%, 90% {
          fill: #f0513fff;
          stroke: #f0513fff;
        }
        100% {
          /* Aqui ele volta para o estado final sólido */
          fill: transparent;
          stroke: transparent;
        }
      }

      #laravel-path {
        fill: transparent;
        stroke: #f0513fff;
        stroke-width: 0.2px; /* Linha fina para o efeito de desenho */
        stroke-dasharray: 104.5;
        animation: laravel-draw-ani 8s linear infinite;
      }
    </style><!--<linearGradient
       id="paint0_linear_302_4984"
       x1=".463"
       x2="24.463"
       y1="12"
       y2="12"
       gradientUnits="userSpaceOnUse"
       gradientTransform="matrix(0.87710673,0,0,0.87710673,1.3546525,1.0617978)"><stop
         stop-color="#ED6D6B"
         id="stop1" /><stop
         offset="1"
         stop-color="#F0B076"
         id="stop2" /></linearGradient>--></defs><g
     style="fill:none"
     id="g1"
     transform="matrix(1.0077848,0,0,1.0077848,-0.4411267,-0.33121025)"><path
       id="laravel-path"
       fill-rule="evenodd"
       d="m 6.7621149,1.2386402 c -0.2089062,-0.1044597 -0.4547936,-0.1044597 -0.6636998,0 L 2.1437097,3.215979 c -0.00942,0.00468 -0.018769,0.00955 -0.028022,0.014622 -0.074978,0.041141 -0.1410655,0.094234 -0.1963982,0.1561891 -0.028953,0.032446 -0.054958,0.067311 -0.077747,0.104182 -0.071109,0.115076 -0.1108174,0.2495746 -0.1108174,0.3901114 V 18.227016 c 0,0.268107 0.1445995,0.515344 0.3782433,0.646823 l 7.9035676,4.445674 c 0.03645,0.02128 0.07457,0.03937 0.113812,0.05412 0.03896,0.01475 0.07888,0.02602 0.119375,0.03381 0.166958,0.0327 0.34602,0.0085 0.505883,-0.08153 l 7.91492,-4.452073 c 0.233742,-0.131479 0.378299,-0.378716 0.378299,-0.646823 V 13.73877 l 3.547301,-1.77365 c 0.251411,-0.125636 0.410159,-0.382612 0.410159,-0.663658 V 6.3545244 c 0,-0.2246002 -0.101429,-0.4337707 -0.270332,-0.5729023 -0.03534,-0.029092 -0.0736,-0.05511 -0.114651,-0.077579 -0.0092,-0.00508 -0.0185,-0.00995 -0.02797,-0.014609 L 18.634663,3.7120807 c -0.208976,-0.1044596 -0.454821,-0.1044596 -0.663658,0 l -3.954677,1.9773249 c -0.0095,0.00466 -0.01879,0.00955 -0.02811,0.014636 -0.08362,0.045872 -0.156105,0.1065889 -0.214958,0.1779077 -0.04592,0.055541 -0.08362,0.1174962 -0.111579,0.1838903 -0.02477,0.05856 -0.04202,0.1205714 -0.05106,0.1846137 -0.0048,0.034171 -0.0073,0.068939 -0.0073,0.1040709 V 10.86751 l -2.473534,1.391177 V 3.8810839 c 0,-0.1849198 -0.06762,-0.3540343 -0.17948,-0.4839555 -0.02894,-0.033684 -0.06094,-0.064849 -0.09586,-0.09308 -0.04563,-0.036884 -0.09558,-0.068467 -0.149149,-0.093844 z m 7.6035711,10.9026198 2.354943,1.177471 -6.353307,3.573735 -2.354956,-1.177471 z m 3.195019,-0.06178 -2.473343,-1.236602 V 7.5551609 l 2.473343,1.2367133 z m 1.484118,0 2.473482,-1.236602 V 7.5551609 L 19.044823,8.7918742 Z M 9.6457849,13.09361 V 5.0817204 l -2.473496,1.2367133 v 8.1663583 z m -0.9942483,4.600249 0.7351853,0.367586 c 0.1677924,0.09085 0.259063,0.152071 0.259063,0.18101 v 3.168027 L 3.2147868,17.793066 V 5.0817204 l 2.4734405,1.2367133 v 9.4348233 2.77e-4 c 0,0.01766 6.261e-4,0.03506 0.00183,0.05245 0.01838,0.260315 0.1726763,0.4935 0.4083514,0.611345 0,0 1.1105071,0.584213 2.0864463,1.052252 0.1677652,0.08042 0.3238007,0.155271 0.4666754,0.22428 z m 2.4782264,0.472491 6.430942,-3.617423 v 3.244134 l -6.430942,3.617421 z M 6.430258,5.0302138 4.1319843,3.8810839 6.430258,2.731954 8.7284897,3.8810839 Z m 14.170753,1.3243106 -2.298177,-1.1491299 -2.298316,1.1491299 2.298316,1.14913 z"
       clip-rule="evenodd" /></g></svg>
